#N canvas 808 26 206 311 10;
#X obj 19 37 phasor~;
#X floatatom 19 -10 5 0 0 2 Freq - -;
#X obj 33 85 phasor~;
#X msg 58 12 0;
#X obj 33 61 * -1;
#X floatatom 113 62 5 0 0 0 - - -;
#X obj 18 141 -~;
#X obj 18 115 +~;
#X obj 18 162 *~ 2;
#X obj 18 184 -~ 1;
#X obj 19 -60 inlet freq;
#X obj 113 -59 inlet DC;
#X obj 18 214 outlet~;
#X connect 0 0 7 0;
#X connect 1 0 0 0;
#X connect 1 0 4 0;
#X connect 2 0 7 1;
#X connect 3 0 0 1;
#X connect 4 0 2 0;
#X connect 5 0 2 1;
#X connect 5 0 3 0;
#X connect 5 0 6 1;
#X connect 6 0 8 0;
#X connect 7 0 6 0;
#X connect 8 0 9 0;
#X connect 9 0 12 0;
#X connect 10 0 1 0;
#X connect 11 0 5 0;
