#N canvas 114 23 1030 628 10;
#X obj 105 601 outlet~ sound;
#X obj 119 122 mtof;
#X obj 119 227 * 1;
#X floatatom 119 72 5 0 0 0 - - -;
#X floatatom 147 227 5 0 0 0 - - -;
#X obj 674 118 vsl 15 100 0 1 0 0 empty empty empty 0 -9 0 10 -262144
-1 -1 0 1;
#X msg 674 265 \$1 20;
#X floatatom 674 231 5 0 0 0 - - -;
#X obj 674 288 line~;
#X obj 565 390 sig~ 1;
#X obj 565 424 -~;
#X obj 659 394 *~;
#X obj 120 458 *~;
#X obj 565 314 cos~;
#X obj 565 289 phasor~;
#X msg 604 224 0;
#X floatatom 618 256 5 0 0 0 - - -;
#X obj 565 255 * 0.01;
#X obj 565 198 t f b;
#X obj 565 340 /~ 2;
#X obj 565 362 +~ 1;
#X obj 574 45 hsl 128 15 1 100 0 0 empty empty empty -2 -8 0 10 -262144
-1 -1 0 1;
#X obj 571 70 swap 1;
#X obj 571 94 /;
#X floatatom 571 118 5 0 0 0 - - -;
#X obj 571 148 t b f;
#X obj 105 568 +~;
#X obj 119 21 inlet list;
#X obj 119 51 unpack 1 2;
#X floatatom 176 73 5 0 0 0 - - -;
#X obj 21 21 inlet~ audioin;
#X obj 314 211 float;
#X obj 371 184 t b f;
#X obj 314 232 sel 0;
#X obj 371 264 float;
#X obj 371 288 select;
#X obj 314 290 / 127;
#X msg 371 333 0;
#X obj 314 333 t f f;
#X obj 314 369 adsr 1 10 20 98 300;
#X msg 314 311 \$1;
#X obj 120 488 *~;
#X obj 571 21 r tremolo_f;
#X obj 674 84 r tremolo_amount;
#X obj 305 42 r attack;
#X obj 363 42 r decay;
#X obj 413 42 r sustain;
#X obj 476 42 r release;
#X obj 120 317 sq;
#X obj 184 273 hsl 100 15 0.15 0.85 0 0 empty dc Duty_Cylce -2 -8 0
10 -257985 -1 -1 1700 1;
#X obj 207 19 r DutyCycle;
#X obj 120 524 *~ 0.1;
#X connect 1 0 2 0;
#X connect 1 0 18 0;
#X connect 2 0 4 0;
#X connect 2 0 48 0;
#X connect 3 0 1 0;
#X connect 3 0 35 1;
#X connect 3 0 32 0;
#X connect 5 0 7 0;
#X connect 6 0 8 0;
#X connect 7 0 6 0;
#X connect 8 0 11 1;
#X connect 9 0 10 0;
#X connect 10 0 12 1;
#X connect 11 0 10 1;
#X connect 12 0 41 0;
#X connect 13 0 19 0;
#X connect 14 0 13 0;
#X connect 15 0 14 1;
#X connect 17 0 16 0;
#X connect 17 0 14 0;
#X connect 18 0 17 0;
#X connect 18 1 15 0;
#X connect 19 0 20 0;
#X connect 20 0 11 0;
#X connect 21 0 22 0;
#X connect 22 0 23 0;
#X connect 22 1 23 1;
#X connect 23 0 24 0;
#X connect 24 0 25 0;
#X connect 25 0 17 0;
#X connect 25 1 17 1;
#X connect 26 0 0 0;
#X connect 27 0 28 0;
#X connect 28 0 3 0;
#X connect 28 1 29 0;
#X connect 29 0 31 1;
#X connect 30 0 26 0;
#X connect 31 0 33 0;
#X connect 32 0 31 0;
#X connect 32 1 34 1;
#X connect 33 0 34 0;
#X connect 33 1 36 0;
#X connect 34 0 35 0;
#X connect 35 0 37 0;
#X connect 36 0 40 0;
#X connect 37 0 39 0;
#X connect 38 0 39 0;
#X connect 38 1 39 1;
#X connect 39 0 41 1;
#X connect 40 0 38 0;
#X connect 41 0 51 0;
#X connect 42 0 21 0;
#X connect 43 0 5 0;
#X connect 44 0 39 2;
#X connect 45 0 39 3;
#X connect 46 0 39 4;
#X connect 47 0 39 5;
#X connect 48 0 12 0;
#X connect 49 0 48 1;
#X connect 50 0 49 0;
#X connect 51 0 26 1;
